HIERARCHY
ROOT Hips
{
	OFFSET 0.00000 0.00000 0.00000
	CHANNELS 6 Xposition Yposition Zposition Yrotation Zrotation Xrotation 
	JOINT Lumbar
	{
		OFFSET 0 0 0
		CHANNELS 3 Zrotation Xrotation Yrotation
		JOINT Neck
		{
			OFFSET 0.00 0.2701 0.00
			CHANNELS 3 Zrotation Xrotation Yrotation
			End Site
			{
				OFFSET 0.00 0.1379 0.00
			}
		}
		JOINT RightShoulder
		{
			OFFSET 0.0119 0.2289 0.1181
			CHANNELS 3 Zrotation Xrotation Yrotation
			JOINT RightElbow
			{
				OFFSET 0.00 -0.1475 0.00
				CHANNELS 2 Zrotation Yrotation
				JOINT RightWrist
				{
					OFFSET 0.00 -0.1605 0.00
					CHANNELS 2 Zrotation Xrotation
					End Site
					{
						OFFSET 0.0040 -0.1068 0.0006
					}
				}
			}
		}
		JOINT LeftShoulder
		{
			OFFSET 0.0119 0.2289 -0.1181
			CHANNELS 3 Zrotation Xrotation Yrotation
			JOINT LeftElbow
			{
				OFFSET 0.00 -0.1475 0.00
				CHANNELS 2 Zrotation Yrotation
				JOINT LeftWrist
				{
					OFFSET 0.00 -0.1605 0.00
					CHANNELS 2 Zrotation Xrotation
					End Site
					{
						OFFSET 0.0040 -0.1068 -0.0006
					}
				}
			}
		}
	}
	JOINT RightHip
	{
		OFFSET 0.0316 -0.0424 0.0458
		CHANNELS 3 Zrotation Xrotation Yrotation
		JOINT RightKnee
		{
			OFFSET 0.00 -0.2438 0.00
			CHANNELS 1 Zrotation
			JOINT RightAnkle
			{
				OFFSET 0.00 -0.2449 0.00
				CHANNELS 3 Zrotation Xrotation Yrotation
				End Site
				{
					OFFSET 0.1237 -0.0542 0.0051
				}
			}
		}
	}
	JOINT LeftHip
	{
		OFFSET 0.0316 -0.0424 -0.0458
		CHANNELS 3 Zrotation Xrotation Yrotation
		JOINT LeftKnee
		{
			OFFSET 0.00 -0.2438 0.00
			CHANNELS 1 Zrotation
			JOINT LeftAnkle
			{
				OFFSET 0.00 -0.2449 0.00
				CHANNELS 3 Zrotation Xrotation Yrotation
				End Site
				{
					OFFSET 0.1237 -0.0542 -0.0051
				}
			}
		}
	}
}
MOTION
Frames: 19
Frame Time: 0.02
-6e-05 -7e-05 -0.00039 45.72948 -33.79909 -9.08289 50.78904 1.40611 -5.80707 -2.49264 -0.21619 -0.44228 -26.09475 -12.42935 14.3342 119.49996 86.23593 18.94929 -2.82778 -25.57777 14.10113 -23.02476 118.19206 -75.51471 5.30644 3.46285 46.2325 -1.67547 -4.09036 -19.89886 -6.67065 -3.57638 -2.49223 50.06603 2.98834 6.02756 -25.25794 -6.93855 2.15436 1.75424
-0.00017 -8e-05 -0.00021 45.71794 -33.77105 -9.08265 50.7874 1.39855 -5.81392 -2.51197 -0.22594 -0.44257 -26.12645 -12.46125 14.29151 119.5255 86.21483 18.96341 -2.83403 -25.83469 13.29315 -22.58186 118.18964 -78.24046 6.46591 3.07759 46.22301 -1.70332 -4.28663 -19.89762 -6.66131 -3.5451 -2.47621 50.05988 2.96956 5.91679 -25.25665 -6.93919 2.16784 1.76174
-0.00028 -8e-05 -3e-05 45.70642 -33.74306 -9.0824 50.78576 1.391 -5.82075 -2.53125 -0.23566 -0.44286 -26.15826 -12.49218 14.24846 119.55097 86.1943 18.97891 -2.83983 -26.09079 12.48767 -22.14036 118.18723 -80.95768 7.62175 2.69353 46.21354 -1.73104 -4.48212 -19.89639 -6.65201 -3.51394 -2.46024 50.05373 2.95082 5.80627 -25.25537 -6.93983 2.18129 1.76921
-0.00038 -9e-05 0.00014 45.69491 -33.7151 -9.08215 50.78412 1.38345 -5.82758 -2.55053 -0.24538 -0.44315 -26.18992 -12.52377 14.20579 119.57644 86.17339 18.99333 -2.84596 -26.34693 11.68214 -21.69881 118.18482 -83.67514 8.77769 2.30943 46.20408 -1.7588 -4.67776 -19.89516 -6.64269 -3.48277 -2.44427 50.0476 2.93209 5.69583 -25.25409 -6.94046 2.19473 1.77669
-0.00049 -9e-05 0.00032 45.68337 -33.68711 -9.0819 50.78249 1.3759 -5.83443 -2.56982 -0.25511 -0.44344 -26.22131 -12.55683 14.16374 119.60194 86.15164 19.00552 -2.85278 -26.60384 10.87424 -21.25592 118.18238 -86.40082 9.93716 1.92419 46.19459 -1.7867 -4.87426 -19.89392 -6.63335 -3.45148 -2.42823 50.04145 2.91332 5.58515 -25.25281 -6.9411 2.20819 1.78417
-0.0006 -0.0001 0.0005 45.67191 -33.65912 -9.08166 50.78082 1.36837 -5.8412 -2.58907 -0.26482 -0.44373 -26.25397 -12.5834 14.11866 119.62733 86.1336 19.02781 -2.85649 -26.85817 10.07398 -20.81737 118.18005 -89.09991 11.08521 1.54266 46.18518 -1.81404 -5.06764 -19.8927 -6.62413 -3.42058 -2.41242 50.03531 2.89466 5.47499 -25.25151 -6.94174 2.22161 1.79163
-0.00071 -0.0001 0.00068 45.6603 -33.63116 -9.08141 50.77924 1.36078 -5.84815 -2.60844 -0.27456 -0.44401 -26.28422 -12.62249 14.07947 119.65297 86.10837 19.03057 -2.86622 -27.11757 9.25894 -20.37046 118.17752 -91.85029 12.25529 1.15396 46.1756 -1.84247 -5.26704 -19.89145 -6.61466 -3.38893 -2.39617 50.02916 2.87579 5.36392 -25.25026 -6.94237 2.23509 1.79914
-0.00082 -0.00011 0.00086 45.64882 -33.60317 -9.08116 50.77754 1.35327 -5.85488 -2.6276 -0.28429 -0.4443 -26.31637 -12.65095 14.03534 119.67829 86.08929 19.04988 -2.87084 -27.37202 8.45804 -19.93146 118.17512 -94.55198 13.40447 0.77209 46.1662 -1.86991 -5.46095 -19.89023 -6.60542 -3.35798 -2.38033 50.02303 2.85711 5.25368 -25.24896 -6.94301 2.24852 1.8066
-0.00092 -0.00011 0.00103 45.63753 -33.57513 -9.08091 50.77584 1.34576 -5.86157 -2.6469 -0.29394 -0.44459 -26.35217 -12.66263 13.98313 119.7036 86.07975 19.09545 -2.86739 -27.62162 7.67206 -19.50114 118.17309 -97.2008 14.53087 0.39754 46.15693 -1.89611 -5.64795 -19.88905 -6.59645 -3.32785 -2.36498 50.01689 2.83867 5.14443 -25.24762 -6.94366 2.26188 1.81402
-0.00103 -0.00012 0.00121 45.62523 -33.54733 -9.08068 50.77462 1.33798 -5.86914 -2.66658 -0.30385 -0.44488 -26.37098 -12.75948 13.97123 119.73011 86.02142 19.00808 -2.90489 -27.90273 6.79312 -19.01791 118.16955 -100.17388 15.7967 -0.02222 46.14667 -1.92932 -5.87412 -19.88764 -6.58592 -3.29291 -2.34678 50.01069 2.81886 5.0294 -25.24657 -6.94423 2.27563 1.8217
-0.00114 -0.00012 0.00139 45.61502 -33.51906 -9.08038 50.77206 1.33091 -5.87448 -2.68472 -0.31335 -0.44517 -26.42302 -12.68401 13.87828 119.75334 86.06207 19.18944 -2.8595 -28.11502 6.11488 -18.64822 118.16884 -102.4498 16.76295 -0.3446 46.13863 -1.94783 -6.01801 -19.8867 -6.5787 -3.26815 -2.33458 50.00472 2.80196 4.92664 -25.24488 -6.945 2.28855 1.82883
-0.00126 -0.00013 0.00161 45.61087 -33.48934 -9.08015 50.76824 1.3248 -5.87637 -2.70411 -0.32054 -0.44544 -26.58749 -12.0696 13.52689 119.77322 86.41047 20.21526 -2.55484 -28.15433 5.95453 -18.5753 118.17817 -102.90549 16.94595 -0.41417 46.13585 -1.92475 -5.93053 -19.88716 -6.58039 -3.27153 -2.33905 49.9986 2.79321 4.85816 -25.24154 -6.94603 2.29927 1.83454
-0.00139 -0.00014 0.00185 45.60867 -33.45924 -9.07978 50.76252 1.31965 -5.87527 -2.7205 -0.32759 -0.44571 -26.78053 -11.29392 13.10011 119.78841 86.85219 21.49297 -2.17238 -28.12045 6.00139 -18.61758 118.18943 -102.64683 16.82265 -0.38366 46.13561 -1.8871 -5.76115 -19.88804 -6.58546 -3.28512 -2.34949 49.99299 2.7875 4.80256 -25.23754 -6.94734 2.30906 1.83966
-0.00151 -0.00014 0.00208 45.60545 -33.42932 -9.07932 50.75623 1.31465 -5.87413 -2.73528 -0.33535 -0.44598 -26.94769 -10.63583 12.73226 119.80252 87.22684 22.58314 -1.84687 -28.11115 5.97534 -18.61882 118.19891 -102.65075 16.81193 -0.38903 46.13452 -1.85694 -5.63332 -19.88868 -6.58906 -3.29391 -2.35702 49.98747 2.78012 4.73979 -25.2338 -6.94865 2.31934 1.84509
-0.00163 -0.00015 0.0023 45.60312 -33.3991 -9.07958 50.75645 1.30694 -5.87996 -2.76451 -0.34009 -0.44625 -27.17287 -9.79244 12.26294 119.83163 87.70326 23.9746 -1.43192 -28.14303 5.86155 -18.57896 118.21417 -102.90331 16.90584 -0.43317 46.13148 -1.82319 -5.48834 -19.88963 -6.59227 -3.30335 -2.36535 49.98005 2.7734 4.67981 -25.23026 -6.94929 2.32972 1.85055
-0.00177 -0.00016 0.00255 45.59901 -33.36978 -9.07819 50.74207 1.30537 -5.86923 -2.76057 -0.35148 -0.44653 -27.27957 -9.29422 11.98354 119.82658 87.99298 24.80784 -1.18248 -28.06591 5.97763 -18.64394 118.21538 -102.48361 16.71815 -0.37482 46.13395 -1.79331 -5.35806 -19.88993 -6.59726 -3.31394 -2.3735 49.97737 2.76673 4.62059 -25.22608 -6.95157 2.33917 1.85555
-0.00193 -0.00016 0.00287 45.59277 -33.33993 -9.07343 50.69287 1.31815 -5.8247 -2.68557 -0.37794 -0.44686 -27.08684 -9.81239 12.27702 119.74297 87.71693 23.95255 -1.42962 -27.75352 6.69546 -19.03827 118.1977 -100.25598 15.75052 -0.04139 46.14367 -1.77927 -5.30342 -19.88916 -6.60486 -3.32426 -2.37895 49.98212 2.75297 4.52755 -25.22089 -6.95668 2.35087 1.8618
-0.00211 -0.00015 0.00322 45.58402 -33.31158 -9.06683 50.62812 1.3375 -5.76145 -2.57346 -0.41176 -0.4472 -26.76561 -10.67988 12.758 119.62192 87.25489 22.54152 -1.84223 -27.32318 7.63489 -19.52093 118.1615 -97.3999 14.5234 0.38851 46.16022 -1.76942 -5.26433 -19.88757 -6.61438 -3.33549 -2.38409 49.99271 2.74001 4.43921 -25.21495 -6.96369 2.36104 1.86729
-0.00229 -0.00015 0.00357 45.57432 -33.28462 -9.06029 50.56718 1.35534 -5.69947 -2.46554 -0.44434 -0.44755 -26.48268 -11.37092 13.13432 119.50905 86.89588 21.44232 -2.16559 -26.91788 8.46018 -19.91909 118.12104 -94.91517 13.46742 0.76343 46.17843 -1.75655 -5.20743 -19.88579 -6.62403 -3.34699 -2.38991 50.00422 2.73135 4.37239 -25.20897 -6.97091 2.36865 1.87141
